<svg width="16" height="16" viewBox="0 0 16 16" fill="none" xmlns="http://www.w3.org/2000/svg">
<path d="M4.44566 10.2437L10.2434 4.44592C10.6054 4.08395 11.1924 4.08395 11.5543 4.44592C11.9162 4.8079 11.916 5.39461 11.5541 5.75655L5.75629 11.5543C5.39435 11.9162 4.80789 11.9162 4.44594 11.5543C4.08399 11.1924 4.08378 10.6057 4.44566 10.2437Z" fill="#4A13C0"/>
<path d="M10.2437 11.5543L4.44594 5.75658C4.08396 5.39461 4.08396 4.80765 4.44594 4.44567C4.80792 4.0838 5.39463 4.08401 5.75657 4.44595L11.5543 10.2437C11.9162 10.6057 11.9162 11.1921 11.5543 11.5541C11.1924 11.916 10.6057 11.9162 10.2437 11.5543Z" fill="#4A13C0"/>
</svg>
