<svg width="16" height="16" viewBox="0 0 16 16" fill="none" xmlns="http://www.w3.org/2000/svg">
<path d="M4.69687 8.72878C4.4436 8.72878 4.23807 8.93432 4.23807 9.18758C4.23812 9.4408 4.44364 9.64639 4.69687 9.64639H7.48663L6.89415 10.2389C6.7152 10.418 6.71513 10.7087 6.89415 10.8878C7.0732 11.0668 7.36396 11.0667 7.54306 10.8878L8.9188 9.51204C9.09788 9.33295 9.09788 9.04222 8.9188 8.86313L7.54306 7.48739C7.36397 7.30833 7.07323 7.30831 6.89415 7.48739C6.7152 7.66648 6.71513 7.95725 6.89415 8.1363L7.48663 8.72878H4.69687Z" fill="#4A13C0"/>
<path d="M12.7395 11.3012C12.9927 11.3012 13.1983 11.5068 13.1983 11.76C13.1982 12.0133 12.9927 12.2188 12.7395 12.2188H9.94971L10.5422 12.8113C10.7211 12.9904 10.7212 13.2812 10.5422 13.4602C10.3631 13.6393 10.0724 13.6392 9.89328 13.4602L8.51755 12.0845C8.33846 11.9054 8.33846 11.6147 8.51755 11.4356L9.89328 10.0598C10.0724 9.88078 10.3631 9.88077 10.5422 10.0598C10.7211 10.2389 10.7212 10.5297 10.5422 10.7088L9.94971 11.3012H12.7395Z" fill="#4A13C0"/>
<path d="M6.7192 2.5172C7.50242 2.07426 8.41206 1.90861 9.30123 2.0465C10.1906 2.18457 11.0084 2.61826 11.6206 3.27795C12.1345 3.83187 12.4762 4.51873 12.6157 5.25548C12.9653 5.4258 13.2732 5.67508 13.5112 5.98791C13.8421 6.42296 14.0219 6.955 14.0219 7.50158C14.0217 8.79521 13.1504 10.0012 11.6889 10.0016C11.6658 10.0016 11.6431 9.99607 11.6206 9.99377C11.556 9.75925 11.4335 9.5374 11.2495 9.35314C11.1845 9.28814 11.1137 9.23233 11.0405 9.18224C11.1095 8.88763 11.3732 8.66857 11.6889 8.66857C12.2517 8.66824 12.6887 8.23234 12.6889 7.50158C12.6889 7.24672 12.6048 6.99845 12.4506 6.79552C12.2963 6.59263 12.0791 6.44572 11.8335 6.37755C11.5636 6.30282 11.3685 6.0668 11.3461 5.78771C11.2986 5.18975 11.051 4.62494 10.643 4.18517C10.2349 3.7454 9.68999 3.45594 9.09713 3.36388C8.5042 3.27189 7.8977 3.38292 7.37545 3.67834C7.04678 3.86427 6.7627 4.11568 6.54146 4.41564C6.75938 4.54378 6.96209 4.69948 7.14302 4.88048C7.40302 5.14095 7.40338 5.56367 7.14302 5.82384C6.88281 6.08369 6.4609 6.08351 6.20064 5.82384C5.94644 5.56946 5.6161 5.40377 5.26021 5.35216C5.244 5.34982 5.22811 5.34296 5.21236 5.33947C4.85042 5.28813 4.47933 5.35577 4.15767 5.53771C3.77298 5.75543 3.49061 6.11761 3.37252 6.54357C3.25454 6.96948 3.31011 7.42553 3.52779 7.81017C3.58576 7.91249 3.65499 8.00668 3.73189 8.09337C3.46404 8.32977 3.28365 8.66339 3.24556 9.03869L3.23775 9.1881L3.24556 9.33654C3.24924 9.37278 3.2549 9.40855 3.26119 9.44396C2.89803 9.1901 2.59011 8.85939 2.36763 8.46642C1.97579 7.77403 1.87492 6.95381 2.08736 6.18712C2.29993 5.42054 2.80814 4.76942 3.50045 4.37755C4.02849 4.07872 4.63087 3.95006 5.22701 3.99962C5.58239 3.38438 6.09507 2.87025 6.7192 2.5172Z" fill="#4A13C0"/>
</svg>
