<svg width="16" height="16" viewBox="0 0 16 16" fill="none" xmlns="http://www.w3.org/2000/svg">
<path fill-rule="evenodd" clip-rule="evenodd" d="M7.99995 1.04765L8.08901 1.05C9.00147 1.09643 9.72644 1.85111 9.72651 2.77461V2.8207C10.0394 2.38024 10.5537 2.09262 11.1351 2.09258H13.225C14.1489 2.09258 14.9031 2.81837 14.9496 3.73047L14.9519 3.81953C14.9519 4.77327 14.1787 5.54648 13.225 5.54648H13.1792C13.5969 5.84337 13.8769 6.32121 13.9046 6.86562L13.907 6.95468V9.04492C13.907 9.6262 13.6195 10.1401 13.1792 10.4531H13.225C14.1786 10.4531 14.9518 11.2264 14.9519 12.1801C14.9519 13.1337 14.1787 13.907 13.225 13.907H11.1351C10.5536 13.907 10.0394 13.6191 9.72651 13.1785V13.225C9.72651 14.1486 9.00152 14.9032 8.08901 14.9496L7.99995 14.952C7.04628 14.9519 6.273 14.1787 6.273 13.225V13.1781C5.97629 13.5962 5.49885 13.877 4.95386 13.9047L4.86479 13.907H2.77456C1.85074 13.907 1.09632 13.1814 1.04995 12.2691L1.04761 12.1801C1.04769 11.2265 1.82094 10.4532 2.77456 10.4531H2.82026C2.3801 10.1401 2.09254 9.62615 2.09253 9.04492V6.95468C2.09265 6.37356 2.38008 5.85943 2.82026 5.54648H2.77456C1.82089 5.5464 1.04761 4.77322 1.04761 3.81953C1.04781 2.86615 1.82087 2.09265 2.77456 2.09258H4.86479C5.44636 2.09266 5.96024 2.38067 6.273 2.82109V2.77461C6.27308 1.82098 7.04633 1.04773 7.99995 1.04765ZM5.54644 9.04492C5.54642 9.62619 5.25897 10.1401 4.8187 10.4531H4.86479C5.44633 10.4532 5.96022 10.7412 6.273 11.1816V11.1352C6.27305 10.5536 6.56089 10.0395 7.00151 9.72656H6.95464C6.37349 9.72644 5.85943 9.43884 5.54644 8.99843V9.04492ZM10.4531 8.99883C10.1561 9.41661 9.67819 9.69666 9.13355 9.72422L9.04487 9.72656H8.99839C9.43892 10.0395 9.72647 10.5538 9.72651 11.1352V11.1812C10.0394 10.7408 10.5537 10.4532 11.1351 10.4531H11.1808C10.7406 10.1401 10.4531 9.62612 10.4531 9.04492V8.99883ZM6.273 4.81758C5.97629 5.23566 5.49885 5.51641 4.95386 5.54414L4.86479 5.54648H4.8187C5.23631 5.84338 5.51634 6.32122 5.54409 6.86562L5.54644 6.95468V7.00078C5.85941 6.56057 6.37355 6.27316 6.95464 6.27304H7.00151C6.56107 5.96026 6.27308 5.44637 6.273 4.86484V4.81758ZM9.72651 4.86484L9.72417 4.9539C9.69646 5.49862 9.41622 5.97627 8.99839 6.27304H9.04487C9.62607 6.27306 10.1401 6.5606 10.4531 7.00078V6.95468C10.4532 6.37359 10.7406 5.85945 11.1808 5.54648H11.1351C10.5536 5.54643 10.0394 5.2586 9.72651 4.81797V4.86484Z" fill="white"/>
<path d="M7.07329 13.2252V11.1353C7.07329 10.6234 7.48833 10.2084 8.00024 10.2084C8.51208 10.2084 8.92681 10.6234 8.92681 11.1353V13.2252C8.92681 13.737 8.51208 14.152 8.00024 14.1521C7.48833 14.1521 7.07329 13.7371 7.07329 13.2252ZM4.86509 11.2533C5.37693 11.2534 5.79165 11.6684 5.79165 12.1802C5.79163 12.6921 5.37692 13.1071 4.86509 13.1072H2.77485C2.26296 13.1072 1.84792 12.6921 1.8479 12.1802C1.8479 11.6683 2.26294 11.2533 2.77485 11.2533H4.86509ZM13.2252 11.2533C13.7372 11.2533 14.1522 11.6683 14.1522 12.1802C14.1522 12.6921 13.7371 13.1072 13.2252 13.1072H11.1354C10.6235 13.1072 10.2085 12.6921 10.2084 12.1802C10.2084 11.6683 10.6235 11.2533 11.1354 11.2533H13.2252ZM2.89282 9.04507V6.95484C2.89288 6.44302 3.30796 6.02795 3.81978 6.02789C4.33165 6.02789 4.74667 6.44298 4.74673 6.95484V9.04507C4.74672 9.55697 4.33168 9.97203 3.81978 9.97203C3.30793 9.97196 2.89284 9.55693 2.89282 9.04507ZM11.2534 9.04507V6.95484C11.2534 6.44298 11.6684 6.02789 12.1803 6.02789C12.6922 6.02791 13.1072 6.44299 13.1073 6.95484V9.04507C13.1073 9.55696 12.6922 9.97201 12.1803 9.97203C11.6684 9.97203 11.2534 9.55697 11.2534 9.04507ZM9.04517 7.0732C9.55706 7.07321 9.97212 7.48825 9.97212 8.00015C9.97204 8.51199 9.55701 8.9267 9.04517 8.92671H6.95493C6.44312 8.92665 6.02806 8.51196 6.02798 8.00015C6.02798 7.48828 6.44307 7.07326 6.95493 7.0732H9.04517ZM7.07329 4.865V2.77476C7.07329 2.26285 7.48833 1.84781 8.00024 1.84781C8.51208 1.84789 8.92681 2.2629 8.92681 2.77476V4.865C8.92673 5.37679 8.51204 5.79148 8.00024 5.79156C7.48838 5.79156 7.07337 5.37684 7.07329 4.865ZM4.86509 2.89273C5.37689 2.89281 5.79158 3.30788 5.79165 3.81968C5.79165 4.33155 5.37693 4.74656 4.86509 4.74664H2.77485C2.26294 4.74664 1.8479 4.33159 1.8479 3.81968C1.84797 3.30783 2.26299 2.89273 2.77485 2.89273H4.86509ZM13.2252 2.89273C13.7371 2.89273 14.1521 3.30783 14.1522 3.81968C14.1522 4.33159 13.7372 4.74664 13.2252 4.74664H11.1354C10.6235 4.74664 10.2084 4.33159 10.2084 3.81968C10.2085 3.30783 10.6235 2.89273 11.1354 2.89273H13.2252Z" fill="#4A13C0"/>
</svg>
