<svg width="16" height="16" viewBox="0 0 16 16" fill="none" xmlns="http://www.w3.org/2000/svg">
<path d="M10.4749 2.54914C10.5589 2.7182 10.7239 3.05772 10.7246 3.05743C11.0097 2.91862 11.3833 3.03373 11.5402 3.2984C11.5535 3.31967 11.5654 3.34173 11.5763 3.36484C11.7279 3.66658 11.5795 4.06914 11.2766 4.199C10.683 4.48066 10.1464 4.85628 9.66764 5.27931C9.07287 5.80533 8.56085 6.40104 8.10601 7.02691C7.68278 7.63323 8.24662 8.31116 8.93221 8.03419C9.20094 7.93837 9.50112 8.1088 9.56406 8.34511C9.64183 8.58113 9.48751 8.83052 9.29046 8.87708C8.37585 9.27455 7.78576 9.77814 7.16428 10.3241C6.48425 10.9503 5.86709 11.6083 5.33918 12.4721C5.29425 12.5385 5.22541 12.5732 5.14913 12.5762C5.1116 12.5771 5.07764 12.5697 5.04225 12.5517C5.0262 12.5432 4.97717 12.5203 4.96042 12.5133C4.87044 12.4783 4.80712 12.3768 4.82185 12.2782C4.95972 11.3834 5.12738 10.4162 5.17679 9.41423C5.17769 8.57323 5.31932 7.82789 4.74309 6.65935C4.64756 6.53625 4.67366 6.32102 4.82115 6.21857C4.96109 6.10812 5.21026 6.13621 5.33031 6.30727C5.4276 6.45578 5.51308 6.62268 5.58678 6.80337C5.82538 7.51935 6.60511 7.58445 7.01963 6.95379C7.65733 5.84373 8.42941 4.81594 9.38021 3.99312C9.79408 3.6351 10.241 3.31777 10.7197 3.05295C10.5565 2.71708 10.3934 2.3812 10.2302 2.04532C9.64957 2.2948 9.09851 2.61251 8.5864 2.98107C7.40857 3.829 6.44669 4.92788 5.65974 6.10844L7.09258 6.25886C7.00439 5.99174 6.89133 5.7233 6.74472 5.46302C6.22764 4.50622 4.87628 4.13134 3.92108 4.71074C2.94071 5.24541 2.56373 6.63072 3.1588 7.60379C3.26901 7.80029 3.32118 8.64289 3.25779 9.29328C3.19117 10.1545 3.02472 11.0262 2.86585 11.9715C2.69345 12.9469 3.27626 13.9869 4.19697 14.3542L4.11514 14.3158C4.44722 14.4916 4.83049 14.5812 5.20809 14.5693C5.95785 14.5538 6.68779 14.1146 7.05 13.4609C7.39221 12.855 7.90883 12.2163 8.44796 11.652C8.92017 11.1601 9.49114 10.654 9.95107 10.41C10.9553 9.97296 11.4105 8.68859 10.9473 7.74876C10.5288 6.79121 9.31048 6.35021 8.4052 6.7815L9.23141 7.78878C9.59723 7.20334 10.0175 6.65711 10.5038 6.19446C10.8952 5.82202 11.3287 5.50446 11.7972 5.27065C12.6724 4.86314 13.0635 3.70589 12.6212 2.85722C12.5901 2.79395 12.5555 2.73278 12.5172 2.67349C12.0523 1.92537 11.0093 1.63849 10.2336 2.03685C10.2314 2.03788 10.3937 2.37873 10.4749 2.54914ZM10.4749 2.54914C10.5231 2.65029 10.3284 1.99145 10.2302 2.04532L10.7197 3.05295L10.4749 2.54914Z" fill="#4A13C0"/>
</svg>
