<svg width="16" height="16" viewBox="0 0 16 16" fill="none" xmlns="http://www.w3.org/2000/svg">
<path d="M8.122 1.83333C5.66667 1.83333 3.52067 3.18733 2.50933 5.22533C2.06513 6.08289 1.83328 7.03455 1.83328 8.00033C1.83328 8.9661 2.06513 9.91777 2.50933 10.7753C3.52067 12.8127 5.66667 14.1667 8.122 14.1667C9.81533 14.1667 11.2687 13.6153 12.2847 12.684C13.9407 11.2353 14.408 8.95133 14.0567 6.892C14.0435 6.81452 13.9713 6.75347 13.8927 6.75333H8.122C8.03359 6.75333 7.95533 6.83159 7.95533 6.92V9.14C7.95533 9.232 8.03 9.30666 8.122 9.30666H11.3007C10.9703 10.7794 9.52654 11.4933 8.122 11.4933C6.16467 11.4933 4.60533 9.85666 4.60533 7.93999C4.60533 6.08466 6.25333 4.44666 8.122 4.44666C9.23533 4.44666 9.93533 4.90199 10.408 5.30666C10.4712 5.36072 10.5731 5.3574 10.6327 5.29933L12.3513 3.61933C12.4174 3.55488 12.4138 3.43438 12.344 3.37399C11.2713 2.44866 9.82133 1.83333 8.122 1.83333Z" fill="white"/>
</svg>
