<svg width="16" height="16" viewBox="0 0 16 16" fill="none" xmlns="http://www.w3.org/2000/svg">
<path d="M11.9161 2.23294C12.0672 2.25226 12.2024 2.32385 12.2965 2.43594C12.3905 2.54796 12.4372 2.69306 12.4301 2.84504C12.4227 2.99686 12.3622 3.14307 12.2578 3.24589C12.084 3.41835 11.9166 3.59758 11.7558 3.78197C9.49225 6.43147 8.35277 10.0273 7.87593 13.3533C7.68897 14.7696 6.24464 15.0848 5.23404 14.0752C4.53416 13.4002 3.83445 12.7246 3.13457 12.0496C2.94774 11.8694 2.76029 11.6893 2.57346 11.5091C2.22532 11.1739 2.03672 10.7231 2.06629 10.2418C2.09495 9.7614 2.3394 9.28947 2.72862 8.94451C3.11807 8.59949 3.61659 8.41389 4.0971 8.44341C4.57854 8.4721 5.00339 8.71347 5.29415 9.09961C5.45046 9.30674 5.60644 9.51442 5.76276 9.72155C5.81274 9.78778 5.86286 9.8539 5.91284 9.92013C7.05283 7.22013 8.61096 4.76941 10.8413 2.83901C11.0521 2.6629 11.2692 2.49379 11.4921 2.33327C11.6114 2.24839 11.7654 2.21399 11.9161 2.23294Z" fill="#4A13C0"/>
</svg>
