<svg width="16" height="16" viewBox="0 0 16 16" fill="none" xmlns="http://www.w3.org/2000/svg">
<path d="M13.4354 7.99985C13.4353 4.99813 11.0016 2.56528 7.99986 2.56528C4.99819 2.56536 2.56536 4.99818 2.56528 7.99985C2.56528 11.0016 4.99814 13.4353 7.99986 13.4354C11.0016 13.4354 13.4354 11.0016 13.4354 7.99985ZM14.7684 7.99985C14.7684 11.738 11.738 14.7684 7.99986 14.7684C4.26176 14.7683 1.2313 11.738 1.2313 7.99985C1.23138 4.2618 4.26181 1.23137 7.99986 1.23129C11.738 1.23129 14.7683 4.26175 14.7684 7.99985Z" fill="#4A13C0"/>
<path d="M6.44666 5.30921C6.65284 5.19024 6.90648 5.19024 7.11267 5.30921L10.7738 7.42249C10.98 7.54152 11.1077 7.7616 11.1078 7.99964C11.1078 8.23782 10.9801 8.45868 10.7738 8.57777L7.11267 10.691C6.90654 10.8099 6.65278 10.8099 6.44666 10.691C6.24047 10.572 6.11277 10.352 6.11267 10.1139V5.88636C6.11267 5.64818 6.24039 5.4283 6.44666 5.30921ZM7.44666 8.95863L9.10681 7.99964L7.44666 7.04066V8.95863Z" fill="#4A13C0"/>
</svg>
