<svg width="16" height="16" viewBox="0 0 16 16" fill="none" xmlns="http://www.w3.org/2000/svg">
<path d="M9.87884 8.00002C9.87884 6.93535 9.06468 6.12119 8 6.12119C6.93533 6.12119 6.12117 6.93535 6.12117 8.00002C6.12117 9.06469 6.93533 9.87885 8 9.87885C9.06468 9.87885 9.87884 9.06469 9.87884 8.00002ZM11.1314 2.5514C8.68891 1.17359 5.68278 1.61199 3.67869 3.42819V2.36352C3.67869 1.98775 3.42818 1.73724 3.05241 1.73724C2.67664 1.73724 2.42613 1.98775 2.42613 2.36352V5.18177C2.42613 5.55754 2.67664 5.80805 3.05241 5.80805H5.87066C6.24643 5.80805 6.49694 5.55754 6.49694 5.18177C6.49694 4.806 6.24643 4.55549 5.87066 4.55549H4.36759C5.30701 3.55345 6.62219 2.9898 8 2.9898C10.7556 2.9898 13.0102 5.2444 13.0102 8.00002C13.0102 8.37579 13.2607 8.6263 13.6365 8.6263C14.0123 8.6263 14.2628 8.37579 14.2628 8.00002C14.2628 5.74542 13.0729 3.6787 11.1314 2.5514ZM12.9476 10.192H10.1293C9.75358 10.192 9.50307 10.4425 9.50307 10.8183C9.50307 11.194 9.75358 11.4445 10.1293 11.4445H11.6324C10.693 12.4466 9.37782 13.0102 8 13.0102C5.24438 13.0102 2.98978 10.7556 2.98978 8.00002C2.98978 7.62425 2.73927 7.37374 2.36351 7.37374C1.98774 7.37374 1.73723 7.62425 1.73723 8.00002C1.73723 11.4445 4.55548 14.2628 8 14.2628C9.62833 14.2628 11.1314 13.6365 12.3213 12.5092V13.6365C12.3213 14.0123 12.5718 14.2628 12.9476 14.2628C13.3234 14.2628 13.5739 14.0123 13.5739 13.6365V10.8183C13.5739 10.4425 13.2607 10.192 12.9476 10.192Z" fill="#4A13C0"/>
</svg>
