<svg width="16" height="16" viewBox="0 0 16 16" fill="none" xmlns="http://www.w3.org/2000/svg">
<path d="M10.6255 1.12714C11.6024 0.236977 13.1703 0.0301837 14.3411 0.96894L14.4536 1.06386L14.5821 1.18496C15.195 1.80166 15.3708 2.56922 15.3298 3.22636C15.2901 3.86053 15.0546 4.41583 14.8673 4.78222L14.8626 4.7912L14.8579 4.80058C14.1084 6.22055 13.4588 7.3782 12.9126 8.26152C12.3984 9.09311 11.8938 9.81857 11.422 10.258L11.4224 10.2584C10.9128 10.7364 10.312 11.0712 9.63994 11.2178C9.47452 12.1142 8.97253 12.919 8.30947 13.5846C7.44354 14.4537 6.33037 14.8439 5.12471 14.8439C3.91221 14.8439 2.5139 14.3776 1.63955 13.1459C0.960536 12.1892 0.666193 11.0404 0.664552 9.858C0.663141 8.72575 1.94743 7.77215 3.09346 8.47949C3.46387 8.05449 3.94341 7.69822 4.54541 7.48574C4.76068 7.40976 4.98841 7.33439 5.22549 7.27206C5.30267 6.40071 5.68016 5.61875 6.34776 5.00917L6.35127 5.00605L10.6255 1.12714Z" fill="white"/>
<path fill-rule="evenodd" clip-rule="evenodd" d="M11.2305 1.79352C11.9408 1.14517 13.0602 1.0319 13.8566 1.73727C14.3249 2.15201 14.4615 2.68597 14.4313 3.17047C14.4028 3.62566 14.2298 4.05222 14.066 4.37243L14.0641 4.37633L14.0617 4.38024C13.3168 5.7915 12.6783 6.9293 12.1473 7.78805C11.6289 8.62636 11.1773 9.25923 10.8027 9.60563L10.8023 9.60524C10.2541 10.1181 9.6018 10.4013 8.8668 10.4013C8.84188 10.4013 8.81694 10.4008 8.79219 10.4002C8.80046 10.5076 8.80158 10.617 8.79531 10.7279C8.75067 11.516 8.33874 12.28 7.67188 12.9494C6.99839 13.6254 6.1266 13.9439 5.12461 13.9439C4.1214 13.9438 3.0364 13.559 2.37344 12.6252C1.82329 11.8501 1.56589 10.8931 1.56445 9.8568C1.56387 9.34335 2.16554 8.91373 2.68008 9.28454C2.78369 9.35926 2.89525 9.45304 2.98555 9.52829C3.0844 9.61067 3.17393 9.6848 3.2625 9.75055C3.28815 9.76959 3.31307 9.78595 3.33555 9.80133C3.34856 9.77047 3.36354 9.73578 3.38086 9.69508C3.4191 9.60523 3.48406 9.45338 3.57695 9.32047C3.88214 8.88384 4.29778 8.52756 4.84453 8.33454C5.30155 8.17324 5.72885 8.04967 6.1418 8.02516C6.12093 7.88948 6.11017 7.75103 6.11016 7.6111C6.11016 6.84887 6.39409 6.18547 6.95469 5.6736L6.95625 5.67243L11.2305 1.79352ZM6.34883 9.42243C6.14976 9.40835 5.86058 9.46072 5.31055 9.65485C5.08024 9.73617 4.88883 9.88753 4.72461 10.1224L4.72422 10.1236C4.72107 10.1293 4.70456 10.159 4.66875 10.2431C4.66258 10.2576 4.65544 10.2749 4.64766 10.2935C4.61555 10.3704 4.57076 10.4776 4.52227 10.574C4.42452 10.7684 4.13127 11.3013 3.48867 11.3013C3.39567 11.3013 3.30537 11.2896 3.21875 11.2705C3.29991 11.4696 3.39899 11.6514 3.51484 11.8146C3.84897 12.2853 4.44689 12.5438 5.12461 12.5439C5.80978 12.5439 6.30596 12.3366 6.68008 11.9611C7.18706 11.4522 7.3777 10.9937 7.39727 10.649C7.41543 10.3275 7.2916 10.011 6.95156 9.72594C6.67088 9.49069 6.50584 9.43357 6.34883 9.42243ZM12.9285 2.78532C12.7314 2.61071 12.4203 2.60198 12.1734 2.8279L12.1711 2.82985L7.89688 6.70915C7.63683 6.9473 7.51016 7.23078 7.51016 7.6111C7.51025 8.36075 8.14105 9.00126 8.8668 9.00133C9.21097 9.00133 9.53097 8.87884 9.84844 8.58102L9.85195 8.5775C10.0714 8.37457 10.4363 7.89297 10.9563 7.05211C11.4629 6.23277 12.0839 5.12795 12.8203 3.73297C12.9468 3.48524 13.0229 3.25947 13.034 3.08297C13.0432 2.93533 13.0095 2.85711 12.9285 2.78532Z" fill="#4A13C0"/>
</svg>
