<svg width="16" height="16" viewBox="0 0 16 16" fill="none" xmlns="http://www.w3.org/2000/svg">
<path fill-rule="evenodd" clip-rule="evenodd" d="M8 1.04765L8.08906 1.05C9.00152 1.09643 9.72648 1.85111 9.72656 2.77461V2.8207C10.0395 2.38024 10.5537 2.09262 11.1352 2.09258H13.225C14.1489 2.09258 14.9031 2.81837 14.9496 3.73047L14.952 3.81953C14.952 4.77327 14.1787 5.54648 13.225 5.54648H13.1793C13.5969 5.84337 13.8769 6.32121 13.9047 6.86562L13.907 6.95468V9.04492C13.907 9.6262 13.6196 10.1401 13.1793 10.4531H13.225C14.1787 10.4531 14.9519 11.2264 14.952 12.1801C14.9519 13.1337 14.1788 13.907 13.225 13.907H11.1352C10.5536 13.907 10.0395 13.6191 9.72656 13.1785V13.225C9.72656 14.1486 9.00156 14.9032 8.08906 14.9496L8 14.952C7.04633 14.9519 6.27304 14.1787 6.27304 13.225V13.1781C5.97634 13.5962 5.4989 13.877 4.9539 13.9047L4.86484 13.907H2.77461C1.85078 13.907 1.09637 13.1814 1.05 12.2691L1.04765 12.1801C1.04773 11.2265 1.82098 10.4532 2.77461 10.4531H2.82031C2.38015 10.1401 2.09259 9.62615 2.09258 9.04492V6.95468C2.09269 6.37356 2.38013 5.85943 2.82031 5.54648H2.77461C1.82094 5.5464 1.04765 4.77322 1.04765 3.81953C1.04786 2.86615 1.82092 2.09265 2.77461 2.09258H4.86484C5.44641 2.09266 5.96029 2.38067 6.27304 2.82109V2.77461C6.27312 1.82098 7.04638 1.04773 8 1.04765ZM5.54648 9.04492C5.54647 9.62619 5.25902 10.1401 4.81875 10.4531H4.86484C5.44637 10.4532 5.96027 10.7412 6.27304 11.1816V11.1352C6.27309 10.5536 6.56094 10.0395 7.00156 9.72656H6.95468C6.37353 9.72644 5.85947 9.43884 5.54648 8.99843V9.04492ZM10.4531 8.99883C10.1561 9.41661 9.67824 9.69666 9.13359 9.72422L9.04492 9.72656H8.99843C9.43896 10.0395 9.72651 10.5538 9.72656 11.1352V11.1812C10.0395 10.7408 10.5537 10.4532 11.1352 10.4531H11.1809C10.7407 10.1401 10.4531 9.62612 10.4531 9.04492V8.99883ZM6.27304 4.81758C5.97633 5.23566 5.49889 5.51641 4.9539 5.54414L4.86484 5.54648H4.81875C5.23636 5.84338 5.51639 6.32122 5.54414 6.86562L5.54648 6.95468V7.00078C5.85945 6.56058 6.37359 6.27316 6.95468 6.27304H7.00156C6.56112 5.96027 6.27313 5.44637 6.27304 4.86484V4.81758ZM9.72656 4.86484L9.72422 4.9539C9.6965 5.49862 9.41626 5.97627 8.99843 6.27304H9.04492C9.62612 6.27306 10.1401 6.5606 10.4531 7.00078V6.95468C10.4532 6.37359 10.7407 5.85945 11.1809 5.54648H11.1352C10.5536 5.54643 10.0395 5.2586 9.72656 4.81797V4.86484Z" fill="white"/>
<path d="M7.07319 13.2252V11.1353C7.07319 10.6234 7.48823 10.2084 8.00014 10.2084C8.51199 10.2084 8.92671 10.6234 8.92671 11.1353V13.2252C8.92671 13.737 8.51199 14.152 8.00014 14.1521C7.48823 14.1521 7.07319 13.7371 7.07319 13.2252ZM4.86499 11.2533C5.37684 11.2534 5.79155 11.6684 5.79155 12.1802C5.79153 12.6921 5.37682 13.1071 4.86499 13.1072H2.77475C2.26286 13.1072 1.84782 12.6921 1.8478 12.1802C1.8478 11.6683 2.26284 11.2533 2.77475 11.2533H4.86499ZM13.2251 11.2533C13.7371 11.2533 14.1521 11.6683 14.1521 12.1802C14.1521 12.6921 13.737 13.1072 13.2251 13.1072H11.1353C10.6234 13.1072 10.2084 12.6921 10.2083 12.1802C10.2083 11.6683 10.6234 11.2533 11.1353 11.2533H13.2251ZM2.89272 9.04507V6.95484C2.89278 6.44302 3.30786 6.02796 3.81968 6.02789C4.33155 6.02789 4.74657 6.44298 4.74663 6.95484V9.04507C4.74662 9.55697 4.33158 9.97203 3.81968 9.97203C3.30783 9.97196 2.89274 9.55693 2.89272 9.04507ZM11.2533 9.04507V6.95484C11.2533 6.44298 11.6684 6.02789 12.1802 6.02789C12.6921 6.02791 13.1071 6.44299 13.1072 6.95484V9.04507C13.1072 9.55696 12.6921 9.97201 12.1802 9.97203C11.6683 9.97203 11.2533 9.55697 11.2533 9.04507ZM9.04507 7.0732C9.55697 7.07321 9.97202 7.48825 9.97202 8.00015C9.97194 8.51199 9.55692 8.9267 9.04507 8.92671H6.95483C6.44302 8.92665 6.02796 8.51196 6.02788 8.00015C6.02788 7.48828 6.44297 7.07326 6.95483 7.0732H9.04507ZM7.07319 4.865V2.77476C7.07319 2.26285 7.48823 1.84781 8.00014 1.84781C8.51199 1.84789 8.92671 2.2629 8.92671 2.77476V4.865C8.92663 5.37679 8.51194 5.79148 8.00014 5.79156C7.48828 5.79156 7.07327 5.37684 7.07319 4.865ZM4.86499 2.89273C5.37679 2.89281 5.79148 3.30788 5.79155 3.81968C5.79155 4.33155 5.37684 4.74656 4.86499 4.74664H2.77475C2.26284 4.74664 1.8478 4.33159 1.8478 3.81968C1.84787 3.30783 2.26289 2.89273 2.77475 2.89273H4.86499ZM13.2251 2.89273C13.737 2.89273 14.152 3.30783 14.1521 3.81968C14.1521 4.33159 13.7371 4.74664 13.2251 4.74664H11.1353C10.6234 4.74664 10.2083 4.33159 10.2083 3.81968C10.2084 3.30783 10.6234 2.89273 11.1353 2.89273H13.2251Z" fill="#4A13C0"/>
</svg>
