<svg width="16" height="16" viewBox="0 0 16 16" fill="none" xmlns="http://www.w3.org/2000/svg">
<path d="M6.95443 7.90355C7.59361 7.90371 8.12728 8.437 8.12728 9.0764C8.12688 9.71477 7.59298 10.2491 6.95443 10.2493C6.31492 10.249 5.78197 9.71568 5.78158 9.0764C5.78158 8.43616 6.31436 7.90376 6.95443 7.90355Z" fill="#4A13C0"/>
<path d="M4.83333 5.78245C5.47252 5.78259 6.00619 6.31593 6.00619 6.95531C6.00581 7.59367 5.47188 8.12802 4.83333 8.12816C4.19385 8.12794 3.66085 7.59459 3.66048 6.95531C3.66048 6.31506 4.19326 5.78267 4.83333 5.78245Z" fill="#4A13C0"/>
<path d="M9.07552 5.78245C9.71471 5.78264 10.2484 6.3159 10.2484 6.95531C10.248 7.58971 9.70394 8.12797 9.07552 8.12816C8.43967 8.12794 7.90304 7.58435 7.90267 6.95531C7.90267 6.31507 8.43546 5.78267 9.07552 5.78245Z" fill="#4A13C0"/>
<path d="M6.95443 3.66234C7.59361 3.6625 8.12728 4.1958 8.12728 4.83519C8.12693 5.47356 7.59295 6.00788 6.95443 6.00804C6.31496 6.00782 5.78192 5.47447 5.78158 4.83519C5.78158 4.19496 6.31436 3.66255 6.95443 3.66234Z" fill="#4A13C0"/>
<path fill-rule="evenodd" clip-rule="evenodd" d="M4.15951 2.15843C5.28922 1.50028 6.61547 1.26202 7.90365 1.48558C9.19198 1.70929 10.3607 2.38049 11.2025 3.38109C12.0442 4.38165 12.5052 5.64779 12.5052 6.95531V13.1575C12.5055 13.5024 12.8116 13.8085 13.1566 13.8088C13.5017 13.8088 13.8077 13.5025 13.8079 13.1575V12.8498C13.8082 12.4088 14.1759 12.0424 14.6165 12.0422C15.0569 12.0424 15.4239 12.4094 15.4242 12.8498C15.4242 13.5654 15.2889 14.2321 14.7601 14.761C14.3349 15.1859 13.7578 15.425 13.1566 15.425C12.5554 15.4249 11.9782 15.1861 11.5531 14.761C11.128 14.3358 10.8891 13.7586 10.889 13.1575V10.8694C10.0973 11.6651 9.0798 12.2068 7.9681 12.4133C6.68265 12.652 5.35351 12.4292 4.21615 11.7844C3.07884 11.1396 2.20561 10.1135 1.75033 8.88792C1.29514 7.66229 1.28725 6.31417 1.72787 5.08324C2.16863 3.85257 3.03009 2.81662 4.15951 2.15843ZM6.95443 3.01976C5.92134 3.01986 4.90174 3.4416 4.17123 4.1721C3.44086 4.90269 3.01888 5.92224 3.01888 6.95531C3.01925 9.09918 4.81077 10.8897 6.95443 10.8899C8.02852 10.8898 9.0141 10.4399 9.73019 9.72133C10.443 9.00602 10.8888 8.02445 10.889 6.95531C10.889 6.43865 10.7869 5.92678 10.5892 5.44945C9.98905 4.00055 8.52901 3.01988 6.95443 3.01976Z" fill="#4A13C0"/>
</svg>
