<svg width="16" height="16" viewBox="0 0 16 16" fill="none" xmlns="http://www.w3.org/2000/svg">
<path d="M6.39008 10.8174C6.83281 10.8174 7.19504 10.4551 7.19504 10.0124V5.98759C7.19504 5.54486 6.83281 5.18263 6.39008 5.18263C5.94735 5.18263 5.58512 5.54486 5.58512 5.98759V10.0124C5.58512 10.4551 5.94735 10.8174 6.39008 10.8174ZM8.80496 5.98759V10.0124C8.80496 10.4551 9.1672 10.8174 9.60992 10.8174C10.0527 10.8174 10.4149 10.4551 10.4149 10.0124V5.98759C10.4149 5.54486 10.0527 5.18263 9.60992 5.18263C9.1672 5.18263 8.80496 5.54486 8.80496 5.98759Z" fill="#4A13C0"/>
<path d="M13.4354 7.99985C13.4353 4.99813 11.0016 2.56528 7.99986 2.56528C4.99819 2.56536 2.56536 4.99818 2.56528 7.99985C2.56528 11.0016 4.99814 13.4353 7.99986 13.4354C11.0016 13.4354 13.4354 11.0016 13.4354 7.99985ZM14.7684 7.99985C14.7684 11.738 11.738 14.7684 7.99986 14.7684C4.26176 14.7683 1.2313 11.738 1.2313 7.99985C1.23138 4.2618 4.26181 1.23137 7.99986 1.23129C11.738 1.23129 14.7683 4.26175 14.7684 7.99985Z" fill="#4A13C0"/>
</svg>
