<svg width="16" height="16" viewBox="0 0 16 16" fill="none" xmlns="http://www.w3.org/2000/svg">
<path d="M15 8C15 11.8661 11.8661 15 8 15C4.1339 15 1 11.8661 1 8C1 4.13388 4.13408 1 8 1C11.8659 1 15 4.13388 15 8Z" fill="white"/>
<path d="M8 2C4.68635 2 2 4.68619 2 8C2 11.3138 4.68619 14 8 14C11.3138 14 14 11.3138 14 8C14 4.68619 11.3137 2 8 2ZM8 9.97202C6.91087 9.97202 6.02798 9.08913 6.02798 8C6.02798 6.91087 6.91087 6.02798 8 6.02798C9.08913 6.02798 9.97202 6.91087 9.97202 8C9.97202 9.08913 9.08913 9.97202 8 9.97202Z" fill="#C0137B"/>
</svg>
