<svg width="16" height="16" viewBox="0 0 16 16" fill="none" xmlns="http://www.w3.org/2000/svg">
<path fill-rule="evenodd" clip-rule="evenodd" d="M13.1805 4.93551C13.4029 5.31233 13.586 5.71703 13.7246 6.14449C13.7708 6.28693 13.812 6.43192 13.8481 6.57926C13.9775 7.10696 14.0082 7.38175 14.0082 7.99996C14.0082 8.61771 13.9774 8.89226 13.8481 9.41922C13.8481 9.41938 13.8481 9.41956 13.8483 9.41969V9.41969C13.8484 9.41981 13.8484 9.41998 13.8484 9.42015C13.7207 9.94661 13.5239 10.4488 13.266 10.9148C13.2191 10.9996 13.1701 11.0832 13.1192 11.1656C12.636 11.9474 11.9757 12.6154 11.1815 13.1104C11.1813 13.1105 11.1812 13.1106 11.1811 13.1107V13.1107C11.1809 13.1108 11.1808 13.1109 11.1806 13.111C9.81801 13.9555 8.1379 14.2253 6.57817 13.8485C6.57789 13.8484 6.57761 13.8483 6.57735 13.8482V13.8482C6.57709 13.8481 6.57682 13.848 6.57654 13.8479C4.76091 13.3988 3.31292 12.1741 2.55704 10.5718C2.21343 9.84349 2.0126 9.03709 1.98556 8.19019C1.93593 6.62116 2.47644 5.14754 3.53712 3.96207C3.86741 3.59296 4.25185 3.26482 4.67149 2.98746C5.47265 2.45795 6.40239 2.11331 7.32931 2.02066C9.65494 1.77874 11.9815 2.90422 13.1805 4.93551ZM5.14415 6.14488C4.69303 5.69498 3.93718 5.76076 3.71174 6.35666C3.33433 7.35424 3.30115 8.46626 3.65157 9.49801C3.77467 9.82661 3.92088 10.1444 4.10235 10.4453C5.03737 11.9192 6.87459 12.8297 8.61993 12.5625C8.62019 12.5625 8.62045 12.5625 8.62072 12.5625V12.5625C8.62097 12.5625 8.62123 12.5624 8.62148 12.5624C8.90366 12.5206 9.18026 12.4527 9.44856 12.3611C10.1536 12.1206 10.2325 11.2315 9.70587 10.7046C8.18606 9.18394 6.66646 7.66305 5.14415 6.14488V6.14488ZM8.60314 3.44254C7.91115 3.34914 7.20582 3.4257 6.54717 3.64505C5.84182 3.87995 5.7628 4.76509 6.28849 5.29079L10.7084 9.71065C11.2341 10.2364 12.1249 10.1597 12.3551 9.4528C12.5178 8.95319 12.5931 8.42594 12.5899 7.86246C12.5719 7.13476 12.3713 6.46331 12.0481 5.81676C11.8395 5.42321 11.5696 5.06476 11.2488 4.75465L11.2469 4.75269C10.5342 4.0401 9.60763 3.57048 8.6047 3.44293L8.60314 3.44254Z" fill="#4A13C0"/>
</svg>
