<svg width="16" height="16" viewBox="0 0 16 16" fill="none" xmlns="http://www.w3.org/2000/svg">
<path d="M10.2338 2.03708C11.0095 1.63885 12.0521 1.92573 12.517 2.6738C12.5553 2.73305 12.5904 2.79417 12.6215 2.85739C13.0635 3.70596 12.6723 4.86291 11.7973 5.27048C11.3288 5.50428 10.8948 5.82187 10.5034 6.1943C10.3098 6.3785 10.1269 6.57626 9.95355 6.78415C10.3832 6.97006 10.7527 7.30291 10.9477 7.74899C11.4105 8.68879 10.9547 9.97318 9.95062 10.4101C9.49076 10.6542 8.91978 11.1606 8.44769 11.6523C7.90869 12.2165 7.39238 12.8552 7.05023 13.4609C6.68808 14.1145 5.95805 14.5536 5.20844 14.5693C4.84601 14.5807 4.4783 14.498 4.1557 14.3359C3.2592 13.9542 2.69596 12.9322 2.86566 11.9716C3.02453 11.0263 3.19064 10.1542 3.25726 9.29294C3.32061 8.64259 3.26882 7.79996 3.15863 7.60348C2.5638 6.63044 2.94105 5.24552 3.92133 4.71091C4.72375 4.22429 5.80389 4.41236 6.43597 5.05173C7.05863 4.27901 7.76979 3.5693 8.58636 2.98141C9.09847 2.61287 9.64929 2.29437 10.2299 2.04489C10.2319 2.0438 10.2347 2.04541 10.2368 2.04489C10.2349 2.04064 10.234 2.03793 10.2338 2.03708ZM10.7192 3.0527C10.2406 3.31748 9.7941 3.6352 9.38031 3.99313C8.42951 4.81595 7.65766 5.84401 7.01996 6.95407C6.60547 7.58468 5.82503 7.51951 5.58636 6.80368C5.51272 6.62312 5.4277 6.45601 5.33051 6.30759C5.21045 6.13653 4.96068 6.10827 4.82074 6.21872C4.67364 6.32115 4.64746 6.53608 4.74261 6.65915C5.3188 7.82759 5.17811 8.57312 5.17719 9.41403C5.12778 10.416 4.95958 11.3834 4.82172 12.2783C4.80702 12.3768 4.87043 12.4786 4.96039 12.5136C4.97727 12.5207 5.02641 12.5433 5.04242 12.5517C5.07768 12.5696 5.11148 12.577 5.14886 12.5761C5.22515 12.5731 5.29436 12.538 5.33929 12.4716C5.86714 11.6081 6.48457 10.9502 7.16449 10.3242C7.78592 9.77824 8.37593 9.27437 9.29047 8.87692C9.48747 8.8303 9.64166 8.58068 9.5639 8.3447C9.50072 8.1086 9.20064 7.93838 8.93207 8.03415C8.24661 8.31102 7.68306 7.63355 8.1059 7.02731C8.56072 6.40147 9.07268 5.80527 9.66742 5.27927C10.1462 4.85623 10.6832 4.48085 11.2768 4.19919C11.5794 4.0693 11.7278 3.66684 11.5766 3.3652C11.5658 3.34224 11.5536 3.31994 11.5405 3.2988C11.3835 3.03412 11.0092 2.91877 10.7241 3.05759C10.7201 3.05106 10.5581 2.71614 10.475 2.5488L10.7192 3.0527Z" fill="#4A13C0"/>
</svg>
