<svg width="16" height="16" viewBox="0 0 16 16" fill="none" xmlns="http://www.w3.org/2000/svg">
<path d="M7.33316 7.66711C7.33316 7.29892 7.63196 7.00011 8.00015 7.00011C8.36827 7.0002 8.66715 7.29897 8.66715 7.66711V11.7228L9.52847 10.8614C9.78883 10.6013 10.2115 10.6012 10.4718 10.8614C10.7321 11.1217 10.732 11.5444 10.4718 11.8048L8.47183 13.8048C8.21148 14.0652 7.78882 14.0652 7.52847 13.8048L5.52848 11.8048C5.26815 11.5444 5.26813 11.1218 5.52848 10.8614C5.78883 10.6013 6.21154 10.6012 6.47183 10.8614L7.33316 11.7228V7.66711ZM12.6671 7.50011C12.6671 7.24513 12.5832 6.99705 12.4289 6.79406C12.2745 6.5911 12.0574 6.44423 11.8117 6.37609C11.5417 6.30132 11.3466 6.0655 11.3244 5.78625C11.2768 5.18816 11.0293 4.62351 10.6212 4.18371C10.2131 3.74388 9.66829 3.45444 9.07535 3.36242C8.48243 3.27042 7.87592 3.38145 7.35367 3.67687C7.02499 3.86281 6.74093 4.11421 6.51969 4.41418C6.73771 4.54235 6.94023 4.69794 7.12125 4.87902C7.38151 5.13946 7.38169 5.56212 7.12125 5.82238C6.86095 6.08241 6.43914 6.08234 6.17887 5.82238C5.92461 5.56794 5.59441 5.40227 5.23844 5.3507C5.22215 5.34834 5.20641 5.34148 5.19058 5.338C4.82864 5.28666 4.45755 5.35431 4.1359 5.53625C3.75119 5.75396 3.46884 6.11613 3.35074 6.54211C3.23265 6.9681 3.28829 7.42398 3.50601 7.80871C3.72376 8.19327 4.08599 8.47581 4.51187 8.59386C4.86638 8.69242 5.07405 9.05953 4.97574 9.41418C4.87735 9.7689 4.51019 9.97634 4.15543 9.87804C3.38869 9.6655 2.73776 9.1574 2.34586 8.46496C1.95397 7.77247 1.85303 6.95243 2.06558 6.18566C2.27815 5.41906 2.78635 4.76795 3.47867 4.37609C4.00671 4.07726 4.60909 3.94859 5.20523 3.99816C5.56062 3.38291 6.07328 2.86879 6.69742 2.51574C7.48064 2.0728 8.39029 1.90714 9.27945 2.04503C10.1689 2.18306 10.9865 2.61674 11.5988 3.27648C12.1128 3.83045 12.4544 4.51714 12.5939 5.25402C12.9436 5.42434 13.2513 5.67354 13.4894 5.98644C13.8204 6.42155 14.0001 6.9534 14.0002 7.50011C14.0001 8.79393 13.1289 9.99985 11.6671 10.0001C11.299 10.0001 11.0002 9.70131 11.0002 9.33312C11.0003 8.96503 11.299 8.66711 11.6671 8.66711C12.2301 8.66686 12.6671 8.23117 12.6671 7.50011Z" fill="#4A13C0"/>
</svg>
