<svg width="16" height="16" viewBox="0 0 16 16" fill="none" xmlns="http://www.w3.org/2000/svg">
<path fill-rule="evenodd" clip-rule="evenodd" d="M11.334 7.84961C12.5048 7.84996 13.4832 8.82937 13.4834 10C13.4832 13.0437 10.8351 14.8163 8 14.8164C5.16523 14.8163 2.51678 13.0431 2.5166 10C2.51678 8.82896 3.49584 7.84961 4.66699 7.84961H11.334ZM4.66699 9.4834C4.39327 9.4834 4.15056 9.7263 4.15039 10C4.15057 12.1342 6.06483 13.1825 8 13.1826C9.93533 13.1825 11.8504 12.1347 11.8506 10C11.8504 9.70204 11.6068 9.51254 11.334 9.4834H4.66699Z" fill="#4A13C0"/>
<path fill-rule="evenodd" clip-rule="evenodd" d="M8 1.18262C9.53456 1.18279 10.8172 2.46544 10.8174 4C10.8172 5.53416 9.53382 6.81623 8 6.81641C6.46642 6.81623 5.18377 5.53358 5.18359 4C5.18377 2.46618 6.46584 1.18279 8 1.18262ZM8 2.81641C7.3557 2.81658 6.81756 3.35604 6.81738 4C6.81756 4.64372 7.35628 5.18244 8 5.18262C8.64396 5.18244 9.18342 4.6443 9.18359 4C9.18342 3.3553 8.6447 2.81658 8 2.81641Z" fill="#4A13C0"/>
</svg>
