<svg width="16" height="16" viewBox="0 0 16 16" fill="none" xmlns="http://www.w3.org/2000/svg">
<path d="M10.5328 12.788C10.864 12.7767 11.1417 13.036 11.153 13.3671C11.1642 13.6982 10.905 13.9759 10.5739 13.9872C10.2624 13.9978 9.95321 13.9986 9.65296 13.998C9.32159 13.9973 9.05366 13.7278 9.05433 13.3964C9.05507 13.0652 9.3237 12.7972 9.65491 12.7978C9.95416 12.7984 10.2448 12.7978 10.5328 12.788ZM13.0114 11.4442C13.1558 11.146 13.5149 11.0215 13.8131 11.1659C14.1112 11.3104 14.2359 11.6695 14.0914 11.9677C13.7476 12.6774 13.18 13.2546 12.4762 13.6103C12.1805 13.7597 11.8191 13.6412 11.6696 13.3456C11.5201 13.0499 11.6394 12.6884 11.9352 12.539C12.4042 12.3019 12.7822 11.9172 13.0114 11.4442ZM13.2516 9.39932V6.60147C13.2516 6.27011 13.5198 6.0009 13.8512 6.00089C14.1826 6.00089 14.4508 6.2701 14.4508 6.60147V9.39932C14.4506 9.73051 14.1824 9.99893 13.8512 9.99893C13.52 9.99892 13.2518 9.7305 13.2516 9.39932ZM11.6696 2.65518C11.819 2.35942 12.1804 2.24012 12.4762 2.38956C13.1662 2.73823 13.7251 3.30063 14.0709 3.9921C14.2191 4.28836 14.0995 4.64848 13.8033 4.79678C13.507 4.94502 13.1459 4.8246 12.9977 4.52823C12.7672 4.06767 12.3948 3.69317 11.9352 3.46085C11.6395 3.31146 11.5204 2.95089 11.6696 2.65518ZM9.65198 2.00284C9.95316 2.00164 10.2623 2.00201 10.5739 2.01261C10.9049 2.02392 11.1641 2.30165 11.153 2.63272C11.1417 2.9639 10.864 3.22308 10.5328 3.21182C10.245 3.20204 9.95413 3.20184 9.65589 3.20303C9.32475 3.20412 9.0557 2.93656 9.05433 2.60538C9.053 2.27401 9.32061 2.00417 9.65198 2.00284Z" fill="#4A13C0"/>
<path d="M6.75814 4.10547C6.76699 3.8961 6.75981 3.69598 6.73079 3.56055C6.69602 3.4174 6.68227 3.4022 6.64193 3.36621C6.57409 3.30258 6.26928 3.24469 5.95931 3.24414C5.28364 3.23551 4.63011 3.19182 4.14779 3.32129C3.67332 3.44116 3.34168 3.76551 3.05697 4.27148C2.72361 4.87584 2.82471 6.06412 2.82943 7.10156C2.84133 7.70052 2.85413 8.29948 2.86751 8.89844C2.90259 9.92911 2.86764 11.1508 3.19466 11.6494C3.62341 12.3291 3.97092 12.5214 4.79134 12.5479C5.14142 12.5594 5.54125 12.5419 5.95931 12.5391C6.31801 12.551 6.61054 12.4383 6.52962 12.4678C6.50333 12.5442 6.61592 12.2467 6.60286 11.8945C6.61314 9.78028 6.64993 7.66601 6.71224 5.55176C6.72644 5.06981 6.74123 4.58742 6.75814 4.10547ZM8.2054 5.55176C8.26771 7.66601 8.30353 9.78028 8.3138 11.8945C8.28868 12.3593 8.36838 12.9817 7.74642 13.6787C7.04776 14.3084 6.41812 14.2218 5.95931 14.2461C5.57031 14.2419 5.1632 14.2526 4.70736 14.2256C4.19863 14.1952 3.5678 14.0965 3.01107 13.749C2.45375 13.4056 2.08457 12.9067 1.82552 12.4395C1.16307 11.0017 1.46591 9.9762 1.43001 8.89844C1.44339 8.29948 1.45619 7.70052 1.4681 7.10156C1.54371 6.03065 1.30717 4.97229 1.96322 3.63965C2.31933 3.00006 2.99766 2.31228 3.82747 2.12012C4.63203 1.92004 5.31766 1.99164 5.95931 1.97168C6.34992 1.97882 6.78385 1.94581 7.33138 2.24707C7.71049 2.45971 7.95618 2.89355 8.03841 3.21484C8.13057 3.54612 8.14829 3.8318 8.15853 4.10547C8.17544 4.58742 8.1912 5.06981 8.2054 5.55176Z" fill="#4A13C0"/>
</svg>
