<svg width="16" height="16" viewBox="0 0 16 16" fill="none" xmlns="http://www.w3.org/2000/svg">
<path d="M11.7343 9.99725L11.4913 10.2128C11.5004 10.4833 11.6518 11.0656 11.45 11.4416C11.2987 11.7305 11.0465 12.0836 10.4825 12.3862C9.21234 13.074 5.88336 14.4496 5.36063 14.4588C4.62238 14.4726 4.20512 14.2891 3.62277 14.1653C3.33848 14.1057 3.10921 13.904 3.00375 13.6334C2.96248 13.5234 1.5777 9.95139 1.11916 8.25481C0.834872 7.20476 -0.187665 5.04963 0.972433 4.3389C1.97663 3.72905 6.76375 2.09666 7.88258 2.06456C9.08853 2.03246 9.04268 3.22925 9.52873 4.06378C10.3954 4.09129 10.1202 3.00456 11.0419 2.48642C12.9723 1.39968 14.1095 2.38095 14.8844 4.22885C16.0766 7.08095 16.0996 11.7626 11.7343 9.99266V9.99725ZM7.88258 10.144C6.81419 9.05725 6.29604 8.35568 6.43819 6.70954C6.58034 5.06339 7.44238 5.23764 8.60707 4.39851C8.70794 4.10046 8.36404 3.03666 7.99263 2.98163C7.82297 2.95871 5.33312 3.72905 5.09926 3.87578C4.37019 4.32973 4.9617 6.10885 5.12219 6.88378C5.4019 8.23188 5.93838 9.98807 6.32814 11.3729C6.39692 11.6159 6.58951 11.8176 6.83712 11.8497C7.36443 11.9139 7.97887 11.5471 8.37321 11.2949C8.55204 11.1803 8.58873 10.9418 8.46034 10.7722C8.26316 10.52 7.96053 10.2173 7.88258 10.1394V10.144ZM13.0411 3.49978C11.7618 2.59188 11.9636 5.13676 12.0644 5.90251C12.1745 6.72329 12.9357 8.93344 14.0361 8.60329C14.967 8.32359 13.9995 4.183 13.0365 3.49978H13.0411ZM3.62277 5.2789C3.54024 5.02212 3.2697 4.63188 3.00375 4.65939C1.10541 5.32885 1.85223 6.15471 2.53545 8.25481C3.03926 9.79832 3.62277 10.9818 3.93545 12.0594C4.14818 12.4066 4.40966 13.3998 4.93545 13.2594C5.93545 12.9924 4.69594 8.63539 4.53545 8.06222C4.21906 6.91129 3.92082 6.17764 3.62277 5.2789ZM9.87721 5.2789C8.13477 5.59529 7.15809 6.04466 7.61204 8.06222C7.98804 9.72671 9.51497 8.98388 10.6842 8.83256L9.87721 5.2789Z" fill="#4A13C0"/>
<path d="M5.80382 4.99326C6.77133 4.65853 6.53748 6.36428 5.72587 5.9516C5.36362 5.76819 5.47367 5.10331 5.80382 4.99326Z" fill="#4A13C0"/>
</svg>
