<svg width="16" height="16" viewBox="0 0 16 16" fill="none" xmlns="http://www.w3.org/2000/svg">
<path d="M10.8742 1.4041C11.8214 1.4041 12.4962 2.42076 12.0071 3.26836L11.8928 3.43535L10.0598 5.75078H12.7434C13.0162 5.75088 13.2615 5.91729 13.3625 6.1707C13.4635 6.42434 13.3997 6.71451 13.2014 6.90215L5.42894 14.2557C5.42222 14.262 5.41541 14.2691 5.40843 14.2752C4.38919 15.1617 2.83053 14.0685 3.37816 12.8035L4.92698 8.93633H3.87913C2.9393 8.93633 2.23604 7.92432 2.76976 7.03789L5.78245 2.02519L5.78636 2.01738C5.90331 1.82854 6.06751 1.6736 6.26194 1.56621L6.41234 1.49492C6.56484 1.43471 6.72786 1.40445 6.8928 1.40508V1.4041H10.8742ZM3.98558 7.60332H5.91136C6.13263 7.60332 6.34008 7.71304 6.46409 7.89629C6.58799 8.07947 6.61267 8.31207 6.5305 8.51738L4.6848 13.1238L11.0696 7.08379H8.68284C8.42721 7.08379 8.1936 6.93792 8.08226 6.70781C7.97101 6.47774 8.00081 6.20412 8.15941 6.00371L10.7444 2.73808H6.90941L3.98558 7.60332Z" fill="#C0137B"/>
</svg>
