<svg width="16" height="16" viewBox="0 0 16 16" fill="none" xmlns="http://www.w3.org/2000/svg">
<path d="M12.2579 3.24584C12.3623 3.14302 12.4227 2.99708 12.4301 2.84527C12.4372 2.69316 12.3908 2.54762 12.2967 2.43553C12.2026 2.32344 12.0673 2.2525 11.9163 2.23318C11.7655 2.21416 11.6113 2.24833 11.4919 2.33331C11.269 2.49383 11.0524 2.66254 10.8416 2.83865C7.84727 5.43017 6.06296 8.95891 4.87803 12.7707L7.52014 12.0495C6.93439 11.2734 6.34864 10.4973 5.76289 9.72111C5.60652 9.51391 5.45014 9.3067 5.29376 9.0995C5.00299 8.71333 4.57845 8.47203 4.09698 8.44336C3.61646 8.41384 3.11842 8.59933 2.72897 8.94435C2.33952 9.28937 2.09534 9.76143 2.06673 10.242C2.03715 10.7234 2.22552 11.1739 2.57382 11.5091C2.76067 11.6894 2.94752 11.8696 3.13436 12.0498C3.83424 12.7248 4.53412 13.3999 5.234 14.0749C6.2446 15.0846 7.68913 14.7701 7.87611 13.3538C8.35294 10.0275 9.49229 6.43113 11.7562 3.78147C11.9171 3.59705 12.0841 3.41833 12.2579 3.24584Z" fill="#4A13C0"/>
</svg>
