<svg width="32" height="32" viewBox="0 0 32 32" fill="none" xmlns="http://www.w3.org/2000/svg">
<path d="M22.5741 9.51838V13.7778C22.5741 16.083 22.5741 17.2361 22.2991 18.1766C20.528 24.2259 12.1532 24.9595 7.67469 21.6163C5.60531 20.0733 3.86654 17.9342 2.04311 16.1203C1.65194 15.7318 1.42592 15.1887 1.42592 14.6374C1.42592 14.0861 1.65194 13.5431 2.04311 13.1546C2.85648 12.3467 4.21036 12.3467 5.02373 13.1546L7.82273 15.9399C7.82273 13.4321 7.82273 12.418 7.82273 9.91027" fill="white"/>
<path d="M22.5741 11.8391V9.55452C22.5741 9.0698 22.3815 8.60493 22.0388 8.26218C21.696 7.91943 21.2311 7.72687 20.7464 7.72687C20.2617 7.72687 19.7968 7.91943 19.4541 8.26218C19.1113 8.60493 18.9188 9.0698 18.9188 9.55452V10.8339M18.9188 10.4683V8.6407C18.9188 8.15597 18.7262 7.69111 18.3835 7.34836C18.0407 7.00561 17.5759 6.81305 17.0911 6.81305C16.6064 6.81305 16.1416 7.00561 15.7988 7.34836C15.4561 7.69111 15.2635 8.15597 15.2635 8.6407V10.4683M15.2635 10.377V9.55452C15.2635 9.0698 15.0709 7.58213 14.7282 7.23938C14.3854 6.89663 13.9206 6.70408 13.4359 6.70408C12.9511 6.70408 12.4863 6.89663 12.1435 7.23938C11.8008 7.58213 11.6082 8.047 11.6082 8.53172V11.6091" fill="white"/>
<path d="M11.5808 11.6528C11.5486 11.6683 11.5112 11.6449 11.5112 11.6091V3.15394C11.5112 2.14008 10.6852 1.31904 9.66633 1.31904C8.64874 1.31904 7.82273 2.14008 7.82273 3.15394V9.91027" fill="white"/>
<path d="M22.5741 9.51838V13.7778C22.5741 16.083 22.5741 17.2361 22.2991 18.1766C20.528 24.2259 12.1532 24.9595 7.67469 21.6163C5.60531 20.0733 3.86654 17.9342 2.04311 16.1203C1.65194 15.7318 1.42592 15.1887 1.42592 14.6374C1.42592 14.0861 1.65194 13.5431 2.04311 13.1546C2.85648 12.3467 4.21036 12.3467 5.02373 13.1546L7.82273 15.9399C7.82273 13.4321 7.82273 12.418 7.82273 9.91027V3.15394C7.82273 2.14008 8.64874 1.31904 9.66633 1.31904C10.6852 1.31904 11.5112 2.14008 11.5112 3.15394V11.6091C11.5112 11.6449 11.5486 11.6683 11.5808 11.6528C11.5976 11.6447 11.6082 11.6277 11.6082 11.6091V8.53172C11.6082 8.047 11.8008 7.58213 12.1435 7.23938C12.4863 6.89663 12.9511 6.70408 13.4359 6.70408C13.9206 6.70408 14.3854 6.89663 14.7282 7.23938C15.0709 7.58213 15.2635 9.0698 15.2635 9.55452V10.377M22.5741 11.8391V9.55452C22.5741 9.0698 22.3815 8.60493 22.0388 8.26218C21.696 7.91943 21.2311 7.72687 20.7464 7.72687C20.2617 7.72687 19.7968 7.91943 19.4541 8.26218C19.1113 8.60493 18.9188 9.0698 18.9188 9.55452V10.8339M18.9188 10.4683V8.6407C18.9188 8.15597 18.7262 7.69111 18.3835 7.34836C18.0407 7.00561 17.5759 6.81305 17.0911 6.81305C16.6064 6.81305 16.1416 7.00561 15.7988 7.34836C15.4561 7.69111 15.2635 8.15597 15.2635 8.6407V10.4683" stroke="#1E1E1E" stroke-width="2.13" stroke-linecap="round" stroke-linejoin="round"/>
</svg>
