<svg width="52" height="17" viewBox="0 0 52 17" fill="none" xmlns="http://www.w3.org/2000/svg">
<path d="M35.4966 0C42.6059 3.97989e-05 48.7212 4.07823 51.435 9.92676C53.0622 13.4337 49.7971 16.71 45.9311 16.71H5.93114C2.06533 16.7097 -1.19886 13.4335 0.428208 9.92676C3.14203 4.07822 9.25733 0 16.3667 0H35.4966ZM10.2495 6.97461C9.30756 6.97477 8.54442 7.73869 8.54442 8.68066C8.54462 9.62247 9.30768 10.3856 10.2495 10.3857C11.1915 10.3857 11.9554 9.62257 11.9556 8.68066C11.9556 7.73859 11.1916 6.97461 10.2495 6.97461ZM18.6616 6.97461C17.7195 6.97461 16.9556 7.73859 16.9556 8.68066C16.9557 9.62258 17.7196 10.3857 18.6616 10.3857C19.6034 10.3856 20.3665 9.62249 20.3667 8.68066C20.3667 7.73867 19.6036 6.97475 18.6616 6.97461ZM27.0727 6.97461C26.1307 6.9747 25.3667 7.73864 25.3667 8.68066C25.3669 9.62252 26.1309 10.3857 27.0727 10.3857C28.0147 10.3857 28.7786 9.62258 28.7788 8.68066C28.7788 7.73859 28.0148 6.97461 27.0727 6.97461ZM35.4848 6.97461C34.5428 6.97461 33.7788 7.73859 33.7788 8.68066C33.779 9.62258 34.5429 10.3857 35.4848 10.3857C36.4266 10.3855 37.1897 9.62245 37.1899 8.68066C37.1899 7.73872 36.4267 6.97482 35.4848 6.97461ZM43.896 6.97461C42.9539 6.97463 42.1899 7.7386 42.1899 8.68066C42.1901 9.62256 42.954 10.3857 43.896 10.3857C44.8379 10.3857 45.6018 9.62258 45.602 8.68066C45.602 7.73859 44.8381 6.97461 43.896 6.97461Z" fill="#4A13C0"/>
</svg>
